<?xml version="1.0" standalone="no"?>
<!DOCTYPE svg PUBLIC "-//W3C//DTD SVG 20010904//EN"
 "http://www.w3.org/TR/2001/REC-SVG-20010904/DTD/svg10.dtd">
<svg version="1.0" xmlns="http://www.w3.org/2000/svg"
 width="150.000000pt" height="128.000000pt" viewBox="0 0 150.000000 128.000000"
 preserveAspectRatio="xMidYMid meet">
<metadata>
Created by potrace 1.10, written by Peter Selinger 2001-2011
</metadata>
<g transform="translate(0.000000,128.000000) scale(0.100000,-0.100000)"
fill="#000000" stroke="none">
<path d="M685 1248 c-68 -37 -113 -124 -81 -157 21 -21 50 -4 54 32 4 32 55
77 88 77 67 0 117 -65 91 -118 -6 -14 -32 -38 -57 -52 -39 -22 -45 -31 -48
-62 -3 -34 -10 -41 -110 -106 -377 -245 -521 -344 -526 -360 -8 -24 1 -49 21
-56 9 -4 297 -6 642 -6 l626 -1 18 22 c9 12 17 25 17 29 0 20 -57 62 -330 240
-162 106 -298 198 -302 203 -10 17 0 31 41 54 49 28 86 99 77 145 -9 48 -43
94 -80 112 -39 18 -112 21 -141 4z m374 -592 l223 -146 -528 1 c-413 0 -525 3
-511 12 10 7 130 84 265 173 l247 160 40 -27 c22 -14 141 -92 264 -173z m291
-151 c16 -19 13 -22 -20 -25 -47 -4 -50 -2 -39 30 9 24 14 28 28 20 10 -5 24
-16 31 -25z m-1137 3 c7 -25 7 -25 -13 -28 -30 -4 -50 0 -50 11 0 14 30 38 46
39 7 0 14 -10 17 -22z"/>
<path d="M46 299 c-25 -20 -26 -24 -26 -129 0 -131 11 -153 79 -153 51 0 81
25 84 69 2 25 -2 29 -25 32 -24 3 -28 0 -28 -21 0 -29 -26 -43 -47 -26 -10 9
-13 34 -11 103 3 90 3 91 28 91 18 0 26 -6 28 -22 3 -18 10 -23 34 -23 28 0
30 2 24 28 -9 36 -51 72 -85 72 -16 0 -40 -9 -55 -21z"/>
<path d="M220 170 l0 -150 70 0 c68 0 70 1 70 25 0 23 -4 25 -42 25 l-43 0 3
125 4 125 -31 0 -31 0 0 -150z"/>
<path d="M413 296 c-27 -24 -28 -27 -28 -130 0 -96 2 -107 23 -128 30 -30 95
-30 125 1 20 19 22 32 22 127 0 103 -1 106 -28 130 -36 31 -78 31 -114 0z m85
-127 c2 -79 0 -98 -13 -102 -37 -15 -45 2 -45 97 0 51 3 96 7 100 4 4 16 6 28
4 18 -3 20 -11 23 -99z"/>
<path d="M580 295 c0 -20 5 -25 25 -25 l25 0 0 -125 0 -125 28 0 27 0 -3 125
-3 125 30 0 c26 0 31 4 31 25 0 25 -1 25 -80 25 -79 0 -80 0 -80 -25z"/>
<path d="M770 170 l0 -150 29 0 29 0 -6 65 -5 65 38 0 38 0 -7 -65 -7 -65 31
0 30 0 0 150 0 150 -30 0 -30 0 2 -62 3 -63 -30 0 -30 0 2 63 1 62 -29 0 -29
0 0 -150z"/>
<path d="M990 318 c0 -2 -2 -69 -3 -151 l-2 -147 28 0 27 0 0 150 0 150 -25 0
c-14 0 -25 -1 -25 -2z"/>
<path d="M1090 170 l0 -150 26 0 25 0 -3 90 c-2 50 -1 90 2 90 3 0 19 -39 36
-88 29 -83 32 -87 62 -90 l32 -3 0 150 0 151 -31 0 -32 0 6 -90 c3 -50 3 -90
-1 -90 -4 0 -15 24 -24 53 -33 104 -46 127 -73 127 l-25 0 0 -150z"/>
<path d="M1335 295 c-23 -22 -25 -31 -25 -125 0 -56 4 -110 10 -120 14 -26 71
-43 103 -31 40 15 57 49 57 112 l0 57 -42 -1 c-36 -2 -43 -6 -46 -24 -3 -18 2
-23 18 -23 18 0 21 -5 18 -31 -4 -39 -29 -59 -52 -40 -24 20 -23 189 0 198 21
8 49 -10 48 -31 -1 -11 7 -16 27 -16 24 0 29 4 29 25 0 38 -42 75 -85 75 -25
0 -44 -8 -60 -25z"/>
</g>
</svg>
